ply
format ascii 1.0
obj_info Format: Amira PLY
element vertex 8
property float32 x
property float32 y
property float32 z
element face 12
property list uint8 int32 vertex_indices
property int32 patch
element patch 1
property int32 innerRegion
property int32 outerRegion
element material 2
property int32 nparams
element parameter 1
property list uint8 int8 name
property list uint8 int8 parseString
end_header
0.5 0.5 0 
-0.5 0.5 0 
-0.5 -0.5 0 
0.5 0.5 6 
0.5 -0.5 0 
-0.5 0.5 6 
0.5 -0.5 6 
-0.5 -0.5 6 
3 0 3 4 0 
3 5 3 1 0 
3 0 1 3 0 
3 5 1 2 0 
3 6 4 3 0 
3 5 2 7 0 
3 6 7 4 0 
3 4 7 2 0 
3 0 2 1 0 
3 0 4 2 0 
3 5 6 3 0 
3 5 7 6 0 
1 1 
1 
0 
3 73 100 0 2 49 0 
